<svg width="860" height="560" viewBox="0 0 860 560" fill="none" xmlns="http://www.w3.org/2000/svg">
  <rect width="860" height="560" rx="36" fill="#F6F3EA"/>
  <rect x="82" y="130" width="176" height="112" rx="24" fill="#FFFFFF"/>
  <rect x="82" y="304" width="176" height="112" rx="24" fill="#FFFFFF"/>
  <rect x="342" y="196" width="176" height="168" rx="28" fill="#1F7A63"/>
  <rect x="602" y="130" width="176" height="112" rx="24" fill="#10253C"/>
  <rect x="602" y="304" width="176" height="112" rx="24" fill="#10253C"/>
  <path d="M258 186H342" stroke="#E8C98A" stroke-width="10" stroke-linecap="round"/>
  <path d="M258 360H342" stroke="#E8C98A" stroke-width="10" stroke-linecap="round"/>
  <path d="M518 242H602" stroke="#E8C98A" stroke-width="10" stroke-linecap="round"/>
  <path d="M518 318H602" stroke="#E8C98A" stroke-width="10" stroke-linecap="round"/>
  <circle cx="430" cy="280" r="46" fill="#EEF5EC"/>
  <path d="M410 280L424 294L454 264" stroke="#1F7A63" stroke-width="12" stroke-linecap="round" stroke-linejoin="round"/>
  <rect x="112" y="160" width="90" height="18" rx="9" fill="#10253C"/>
  <rect x="112" y="192" width="112" height="14" rx="7" fill="#C7D5D0"/>
  <rect x="112" y="334" width="90" height="18" rx="9" fill="#10253C"/>
  <rect x="112" y="366" width="124" height="14" rx="7" fill="#C7D5D0"/>
  <rect x="634" y="160" width="92" height="18" rx="9" fill="#EEF5EC"/>
  <rect x="634" y="192" width="112" height="14" rx="7" fill="#A8BCB8"/>
  <rect x="634" y="334" width="92" height="18" rx="9" fill="#EEF5EC"/>
  <rect x="634" y="366" width="124" height="14" rx="7" fill="#A8BCB8"/>
</svg>
