<svg width="860" height="520" viewBox="0 0 860 520" fill="none" xmlns="http://www.w3.org/2000/svg">
  <rect width="860" height="520" rx="36" fill="#10253C"/>
  <rect x="40" y="42" width="230" height="172" rx="24" fill="#EEF5EC"/>
  <rect x="298" y="42" width="230" height="172" rx="24" fill="#1F7A63"/>
  <rect x="556" y="42" width="264" height="172" rx="24" fill="#F0E0B8"/>
  <rect x="40" y="242" width="374" height="238" rx="30" fill="#F8FAF4"/>
  <rect x="442" y="242" width="378" height="238" rx="30" fill="#E4EFE1"/>
  <path d="M155 96L198 96L232 126L198 158H155V132H178L196 116L178 96H155Z" fill="#10253C"/>
  <path d="M123 101L164 60H215V111L174 152H123V101Z" stroke="#1F7A63" stroke-width="12" stroke-linejoin="round"/>
  <circle cx="413" cy="128" r="48" fill="#EEF5EC" fill-opacity="0.18"/>
  <path d="M368 128H458" stroke="#EEF5EC" stroke-width="14" stroke-linecap="round"/>
  <path d="M413 84V172" stroke="#EEF5EC" stroke-width="14" stroke-linecap="round"/>
  <path d="M621 116H741" stroke="#10253C" stroke-width="14" stroke-linecap="round"/>
  <path d="M621 154H696" stroke="#10253C" stroke-width="14" stroke-linecap="round"/>
  <rect x="74" y="284" width="122" height="18" rx="9" fill="#10253C"/>
  <rect x="74" y="324" width="290" height="14" rx="7" fill="#C1D2CA"/>
  <rect x="74" y="354" width="250" height="14" rx="7" fill="#C1D2CA"/>
  <rect x="74" y="384" width="218" height="14" rx="7" fill="#C1D2CA"/>
  <rect x="474" y="284" width="132" height="18" rx="9" fill="#1F7A63"/>
  <rect x="474" y="324" width="302" height="14" rx="7" fill="#AECBBE"/>
  <rect x="474" y="354" width="262" height="14" rx="7" fill="#AECBBE"/>
  <rect x="474" y="384" width="196" height="14" rx="7" fill="#AECBBE"/>
  <path d="M364 393C399 344 435 318 474 306" stroke="#1F7A63" stroke-width="10" stroke-linecap="round" stroke-dasharray="10 18"/>
</svg>
