<svg width="1200" height="860" viewBox="0 0 1200 860" fill="none" xmlns="http://www.w3.org/2000/svg">
  <rect width="1200" height="860" rx="48" fill="#EAF2E8"/>
  <circle cx="910" cy="212" r="146" fill="#D9EACF"/>
  <circle cx="1052" cy="672" r="118" fill="#F0E0B8"/>
  <rect x="88" y="120" width="360" height="214" rx="28" fill="#10253C"/>
  <rect x="126" y="160" width="188" height="18" rx="9" fill="#EAF2E8" fill-opacity="0.94"/>
  <rect x="126" y="202" width="274" height="16" rx="8" fill="#CFE0DA"/>
  <rect x="126" y="236" width="226" height="16" rx="8" fill="#CFE0DA"/>
  <rect x="126" y="270" width="156" height="16" rx="8" fill="#CFE0DA"/>
  <rect x="512" y="90" width="226" height="148" rx="26" fill="#FFFFFF"/>
  <rect x="790" y="122" width="274" height="180" rx="30" fill="#1F7A63"/>
  <rect x="470" y="328" width="314" height="176" rx="30" fill="#FFFFFF"/>
  <rect x="830" y="378" width="232" height="148" rx="28" fill="#10253C"/>
  <rect x="144" y="436" width="252" height="168" rx="28" fill="#FFFFFF"/>
  <rect x="236" y="650" width="628" height="92" rx="24" fill="#FFFFFF"/>
  <path d="M448 227C496 227 513 226 548 226" stroke="#1F7A63" stroke-width="10" stroke-linecap="round"/>
  <path d="M741 163C775 163 778 163 790 163" stroke="#E8C98A" stroke-width="10" stroke-linecap="round"/>
  <path d="M643 238V328" stroke="#1F7A63" stroke-width="10" stroke-linecap="round" stroke-dasharray="10 18"/>
  <path d="M396 519H470" stroke="#1F7A63" stroke-width="10" stroke-linecap="round"/>
  <path d="M784 430H830" stroke="#E8C98A" stroke-width="10" stroke-linecap="round"/>
  <path d="M272 604V650" stroke="#10253C" stroke-width="10" stroke-linecap="round"/>
  <rect x="864" y="414" width="94" height="20" rx="10" fill="#EAF2E8" fill-opacity="0.95"/>
  <rect x="864" y="450" width="156" height="16" rx="8" fill="#C5D4D0"/>
  <rect x="864" y="482" width="128" height="16" rx="8" fill="#C5D4D0"/>
  <rect x="542" y="124" width="112" height="78" rx="18" fill="#EAF2E8"/>
  <rect x="674" y="124" width="42" height="78" rx="18" fill="#F0E0B8"/>
  <rect x="500" y="362" width="120" height="20" rx="10" fill="#10253C"/>
  <rect x="500" y="398" width="238" height="16" rx="8" fill="#C5D4D0"/>
  <rect x="500" y="432" width="210" height="16" rx="8" fill="#C5D4D0"/>
  <rect x="500" y="466" width="128" height="16" rx="8" fill="#C5D4D0"/>
  <rect x="176" y="470" width="132" height="20" rx="10" fill="#10253C"/>
  <rect x="176" y="508" width="172" height="16" rx="8" fill="#C5D4D0"/>
  <rect x="176" y="542" width="146" height="16" rx="8" fill="#C5D4D0"/>
  <rect x="270" y="678" width="114" height="16" rx="8" fill="#10253C"/>
  <rect x="412" y="678" width="176" height="16" rx="8" fill="#C5D4D0"/>
  <rect x="606" y="678" width="222" height="16" rx="8" fill="#C5D4D0"/>
  <path d="M1022 180C973 180 929 219 922 278" stroke="#EAF2E8" stroke-width="14" stroke-linecap="round"/>
</svg>
