<svg width="860" height="560" viewBox="0 0 860 560" fill="none" xmlns="http://www.w3.org/2000/svg">
  <rect width="860" height="560" rx="36" fill="#F5F7F1"/>
  <circle cx="432" cy="282" r="98" fill="#10253C"/>
  <circle cx="432" cy="282" r="56" fill="#EEF5EC"/>
  <rect x="94" y="96" width="192" height="112" rx="24" fill="#FFFFFF"/>
  <rect x="570" y="96" width="192" height="112" rx="24" fill="#FFFFFF"/>
  <rect x="94" y="356" width="192" height="112" rx="24" fill="#FFFFFF"/>
  <rect x="570" y="356" width="192" height="112" rx="24" fill="#FFFFFF"/>
  <path d="M286 152H334" stroke="#1F7A63" stroke-width="10" stroke-linecap="round"/>
  <path d="M526 152H570" stroke="#1F7A63" stroke-width="10" stroke-linecap="round"/>
  <path d="M286 412H334" stroke="#1F7A63" stroke-width="10" stroke-linecap="round"/>
  <path d="M526 412H570" stroke="#1F7A63" stroke-width="10" stroke-linecap="round"/>
  <path d="M192 208V282H334" stroke="#E8C98A" stroke-width="10" stroke-linecap="round" stroke-linejoin="round"/>
  <path d="M668 208V282H526" stroke="#E8C98A" stroke-width="10" stroke-linecap="round" stroke-linejoin="round"/>
  <path d="M192 356V282H334" stroke="#E8C98A" stroke-width="10" stroke-linecap="round" stroke-linejoin="round"/>
  <path d="M668 356V282H526" stroke="#E8C98A" stroke-width="10" stroke-linecap="round" stroke-linejoin="round"/>
  <rect x="130" y="124" width="112" height="18" rx="9" fill="#10253C"/>
  <rect x="130" y="154" width="126" height="14" rx="7" fill="#C3D2CC"/>
  <rect x="606" y="124" width="88" height="18" rx="9" fill="#10253C"/>
  <rect x="606" y="154" width="118" height="14" rx="7" fill="#C3D2CC"/>
  <rect x="130" y="384" width="126" height="18" rx="9" fill="#10253C"/>
  <rect x="130" y="414" width="108" height="14" rx="7" fill="#C3D2CC"/>
  <rect x="606" y="384" width="100" height="18" rx="9" fill="#10253C"/>
  <rect x="606" y="414" width="130" height="14" rx="7" fill="#C3D2CC"/>
</svg>
